<svg width="1042" height="600" viewBox="0 0 1042 600" fill="none" xmlns="http://www.w3.org/2000/svg">
<path d="M369.588 457.667C367.461 457.667 365.56 456.931 363.862 455.438C362.369 453.945 361.633 452.043 361.633 449.712V242.65C361.633 240.319 362.369 238.397 363.862 236.924C365.56 235.431 367.482 234.695 369.588 234.695H403.986C407.381 234.695 409.937 235.656 411.634 237.558C413.536 239.256 414.722 240.646 415.131 241.71L471.207 342.367L527.261 241.71C527.895 240.646 528.959 239.276 530.451 237.558C532.149 235.656 534.807 234.695 538.407 234.695H572.498C574.829 234.695 576.751 235.431 578.224 236.924C579.921 238.417 580.78 240.319 580.78 242.65V449.712C580.78 452.043 579.921 453.966 578.224 455.438C576.731 456.931 574.829 457.667 572.498 457.667H534.582C532.251 457.667 530.227 456.931 528.529 455.438C527.036 453.945 526.3 452.043 526.3 449.712V330.26L490.307 396.847C489.448 398.749 488.18 400.447 486.483 401.939C484.786 403.432 482.454 404.169 479.469 404.169H462.904C459.938 404.169 457.587 403.432 455.889 401.939C454.192 400.447 452.801 398.749 451.758 396.847L415.765 330.26V449.712C415.765 452.043 415.029 453.966 413.536 455.438C412.043 456.931 410.142 457.667 407.81 457.667H369.588ZM623.951 457.667C621.619 457.667 619.697 456.951 618.225 455.54C616.732 454.129 615.996 452.309 615.996 450.08V307.56C615.996 305.331 616.732 303.511 618.225 302.1C619.718 300.689 621.619 299.973 623.951 299.973H661.539C663.666 299.973 665.465 300.689 666.958 302.1C668.656 303.511 669.514 305.331 669.514 307.56V450.08C669.514 452.309 668.656 454.129 666.958 455.54C665.465 456.951 663.666 457.667 661.539 457.667H623.951ZM623.624 276.087C621.292 276.087 619.37 275.351 617.898 273.858C616.405 272.365 615.668 270.463 615.668 268.132V239.787C615.668 237.456 616.405 235.534 617.898 234.061C619.39 232.364 621.292 231.505 623.624 231.505H661.539C663.87 231.505 665.792 232.343 667.265 234.061C668.962 235.554 669.821 237.456 669.821 239.787V268.132C669.821 270.463 668.962 272.385 667.265 273.858C665.772 275.351 663.87 276.087 661.539 276.087H623.624ZM712.44 457.667C710.109 457.667 708.186 456.931 706.714 455.438C705.221 453.945 704.485 452.043 704.485 449.712V239.46C704.485 237.129 705.221 235.206 706.714 233.734C708.207 232.241 710.109 231.505 712.44 231.505H750.028C752.359 231.505 754.281 232.241 755.754 233.734C757.247 235.227 757.983 237.129 757.983 239.46V449.712C757.983 452.043 757.247 453.966 755.754 455.438C754.261 456.931 752.359 457.667 750.028 457.667H712.44ZM800.929 457.667C798.598 457.667 796.675 456.931 795.203 455.438C793.71 453.945 792.974 452.043 792.974 449.712V239.46C792.974 237.129 793.71 235.206 795.203 233.734C796.696 232.241 798.598 231.505 800.929 231.505H837.883C840.01 231.505 841.809 232.241 843.302 233.734C845 235.227 845.859 237.129 845.859 239.46V346.171L890.134 297.437C891.402 295.944 892.792 294.677 894.265 293.613C895.758 292.55 897.884 292.018 900.645 292.018H943.325C945.227 292.018 946.822 292.754 948.111 294.247C949.604 295.515 950.34 297.11 950.34 299.032C950.34 299.891 950.135 300.832 949.706 301.896C949.276 302.959 948.642 303.797 947.804 304.452L890.461 366.253L955.759 445.581C957.457 447.278 958.316 448.976 958.316 450.673C958.316 452.595 957.579 454.272 956.086 455.765C954.818 457.033 953.121 457.667 950.994 457.667H907.353C904.163 457.667 901.831 457.135 900.339 456.072C898.846 454.804 897.475 453.516 896.208 452.248L845.879 391.714V449.691C845.879 452.023 845.02 453.945 843.323 455.418C841.83 456.91 840.03 457.647 837.903 457.647H800.949L800.929 457.667Z" fill="#1449AE"/>
<path d="M254.826 272.204L305.257 301.326C309.306 303.657 309.368 309.486 305.38 311.919L236.973 353.475C235.807 354.17 235.828 355.867 237.014 356.542L280.328 381.553C284.745 384.089 284.336 390.592 279.633 392.556L126.173 457.138C120.038 459.715 114.741 452.087 119.301 447.24L178.096 384.723C178.894 383.885 178.689 382.535 177.687 381.962L143.331 362.125C139.506 359.917 139.179 354.518 142.717 351.88L248.057 272.613C250.021 271.121 252.7 270.957 254.847 272.204H254.826Z" fill="#F0A941"/>
<path d="M272.676 498.819C257.502 526.407 242.962 552.052 232.307 570.641C230.508 573.791 227.685 576.347 224.25 577.492C220.282 578.822 216.07 578.392 212.47 576.327L29.0911 470.454C25.9418 468.634 23.3855 465.812 22.2402 462.376C20.911 458.409 21.3404 454.196 23.4264 450.617C47.8442 408.612 93.9804 330.634 128.828 280.265C160.587 234.353 190.936 208.361 217.726 185.415C225.211 179.014 232.266 172.961 238.974 166.805C269.711 138.563 310.06 79.4201 311.757 76.9251L294.006 64.8389C293.597 65.4319 253.351 124.432 224.434 150.976C218.012 156.866 211.1 162.797 203.758 169.096C177.377 191.693 144.534 219.833 111.179 268.035C75.9227 318.998 29.4388 397.548 4.85737 439.819C-0.316591 448.736 -1.42092 459.247 1.85116 469.125C4.67332 477.673 10.8289 484.708 18.6205 489.207L201.059 594.528C208.851 599.027 218.033 600.826 226.847 599.006C237.052 596.9 245.6 590.703 250.713 581.746C261.429 563.075 276.092 537.205 291.429 509.331C293.045 506.406 292.002 502.725 289.119 501.069L281.143 496.467C278.157 494.75 274.353 495.813 272.697 498.84L272.676 498.819Z" fill="#1449AE"/>
<path d="M466.874 83.1576L328.568 3.29832C316.829 -3.49125 301.798 0.5375 295.029 12.2965L278.526 40.8659C271.736 52.6045 275.765 67.6356 287.524 74.4047L306.052 85.1004L314.518 72.871C316.563 69.9261 315.643 65.8564 312.535 64.0568L302.964 58.5351C298.874 56.1833 297.483 50.948 299.835 46.8784L310.878 27.7571C313.23 23.667 318.465 22.2764 322.535 24.6282L451.393 99.0271C455.483 101.379 456.874 106.614 454.522 110.684L443.479 129.805C441.127 133.895 435.892 135.286 431.822 132.934L422.149 127.351C419.02 125.551 415.032 126.819 413.519 130.091L409.633 138.476C408.304 141.36 409.388 144.775 412.128 146.37L425.81 154.264C437.548 161.054 452.579 157.025 459.348 145.266L475.852 116.696C482.641 104.958 478.613 89.9267 466.854 83.1576H466.874Z" fill="#1449AE"/>
<path d="M366.05 574.376C365.191 574.376 364.496 574.11 363.944 573.558C363.392 573.005 363.126 572.31 363.126 571.451V495.743C363.126 494.885 363.392 494.189 363.944 493.637C364.496 493.085 365.191 492.819 366.05 492.819H396.337C403.945 492.819 410.428 494.066 415.786 496.541C421.144 498.954 425.254 502.513 428.138 507.257C431.001 511.92 432.555 517.707 432.8 524.62C432.882 528.035 432.923 531.021 432.923 533.597C432.923 536.174 432.882 539.119 432.8 542.452C432.494 549.671 430.939 555.643 428.138 560.387C425.418 565.132 421.43 568.649 416.133 570.981C410.939 573.23 404.517 574.355 396.91 574.355H366.05V574.376ZM383.985 557.606H396.337C399.671 557.606 402.431 557.095 404.599 556.093C406.849 555.009 408.526 553.332 409.61 551.082C410.775 548.833 411.389 545.888 411.471 542.227C411.634 539.978 411.696 537.953 411.696 536.174C411.777 534.395 411.777 532.595 411.696 530.816C411.696 529.037 411.614 527.053 411.471 524.885C411.307 519.609 409.916 515.764 407.278 513.351C404.722 510.856 400.877 509.629 395.744 509.629H383.985V557.606ZM448.138 574.376C447.279 574.376 446.584 574.13 446.032 573.619C445.48 573.108 445.214 572.453 445.214 571.656V520.591C445.214 519.793 445.48 519.139 446.032 518.628C446.584 518.116 447.279 517.871 448.138 517.871H461.881C462.658 517.871 463.312 518.116 463.865 518.628C464.478 519.139 464.805 519.793 464.805 520.591V571.656C464.805 572.453 464.499 573.108 463.865 573.619C463.312 574.13 462.658 574.376 461.881 574.376H448.138ZM448.016 509.159C447.157 509.159 446.461 508.893 445.909 508.341C445.357 507.789 445.091 507.093 445.091 506.235V495.866C445.091 495.007 445.357 494.312 445.909 493.76C446.461 493.146 447.157 492.819 448.016 492.819H461.881C462.74 492.819 463.435 493.126 463.987 493.76C464.601 494.312 464.928 495.007 464.928 495.866V506.235C464.928 507.093 464.621 507.789 463.987 508.341C463.435 508.893 462.74 509.159 461.881 509.159H448.016ZM888.089 574.376C887.23 574.376 886.534 574.13 885.982 573.619C885.43 573.108 885.164 572.453 885.164 571.656V520.591C885.164 519.793 885.43 519.139 885.982 518.628C886.534 518.116 887.23 517.871 888.089 517.871H901.831C902.608 517.871 903.263 518.116 903.815 518.628C904.428 519.139 904.756 519.793 904.756 520.591V571.656C904.756 572.453 904.449 573.108 903.815 573.619C903.263 574.13 902.608 574.376 901.831 574.376H888.089ZM887.966 509.159C887.107 509.159 886.412 508.893 885.859 508.341C885.307 507.789 885.041 507.093 885.041 506.235V495.866C885.041 495.007 885.307 494.312 885.859 493.76C886.412 493.146 887.107 492.819 887.966 492.819H901.831C902.69 492.819 903.385 493.126 903.938 493.76C904.551 494.312 904.878 495.007 904.878 495.866V506.235C904.878 507.093 904.572 507.789 903.938 508.341C903.385 508.893 902.69 509.159 901.831 509.159H887.966ZM496.606 575.541C492.413 575.541 488.651 574.764 485.317 573.21C482.066 571.574 479.448 569.406 477.505 566.686C475.562 563.966 474.601 560.899 474.601 557.484C474.601 551.962 476.851 547.626 481.35 544.436C485.849 541.184 491.841 538.955 499.285 537.79L513.845 535.581V533.945C513.845 531.143 513.273 529.016 512.107 527.544C510.942 526.071 508.815 525.335 505.706 525.335C503.538 525.335 501.739 525.765 500.348 526.624C499.019 527.483 497.976 528.648 497.199 530.121C496.504 531.123 495.522 531.634 494.295 531.634H481.247C480.389 531.634 479.734 531.409 479.264 530.939C478.793 530.387 478.609 529.773 478.691 529.078C478.691 527.687 479.202 526.092 480.205 524.292C481.288 522.431 482.924 520.611 485.092 518.812C487.26 517.032 490.062 515.56 493.477 514.394C496.892 513.229 501.003 512.656 505.829 512.656C510.655 512.656 515.195 513.229 518.754 514.394C522.332 515.56 525.195 517.196 527.363 519.282C529.613 521.388 531.29 523.863 532.374 526.726C533.457 529.528 534.01 532.636 534.01 536.051V571.451C534.01 572.31 533.703 573.005 533.069 573.558C532.517 574.11 531.862 574.376 531.085 574.376H517.567C516.709 574.376 516.013 574.11 515.461 573.558C514.909 573.005 514.643 572.31 514.643 571.451V567.382C513.641 568.854 512.271 570.224 510.573 571.451C508.856 572.699 506.851 573.66 504.52 574.355C502.271 575.132 499.632 575.521 496.606 575.521V575.541ZM502.086 562.269C504.336 562.269 506.361 561.799 508.14 560.878C510.001 559.876 511.432 558.363 512.455 556.338C513.539 554.232 514.091 551.635 514.091 548.526V546.89L504.193 548.628C500.553 549.242 497.874 550.224 496.156 551.532C494.52 552.78 493.702 554.252 493.702 555.95C493.702 557.279 494.09 558.404 494.867 559.324C495.645 560.265 496.647 561.001 497.894 561.533C499.142 562.003 500.532 562.228 502.086 562.228V562.269ZM576.833 600C570.861 600 565.892 599.223 561.924 597.669C558.039 596.114 554.93 594.253 552.599 592.086C550.35 589.918 548.713 587.73 547.711 585.562C546.709 583.456 546.157 581.799 546.075 580.552C545.994 579.693 546.259 578.997 546.893 578.445C547.507 577.893 548.243 577.627 549.102 577.627H563.888C564.583 577.627 565.176 577.791 565.626 578.098C566.178 578.486 566.587 579.1 566.914 579.959C567.303 580.818 567.814 581.697 568.428 582.638C569.123 583.578 570.064 584.315 571.229 584.846C572.477 585.46 574.133 585.787 576.24 585.787C578.571 585.787 580.514 585.398 582.068 584.621C583.622 583.926 584.788 582.719 585.565 581.002C586.342 579.366 586.731 577.157 586.731 574.355V566.543C584.952 568.486 582.661 570.081 579.859 571.308C577.058 572.474 573.683 573.046 569.737 573.046C565.79 573.046 562.272 572.474 559.245 571.308C556.219 570.142 553.703 568.404 551.679 566.073C549.654 563.741 548.059 560.919 546.914 557.565C545.83 554.232 545.176 550.387 544.93 546.031C544.848 544.007 544.848 542.002 544.93 539.978C545.155 535.786 545.83 532.023 546.914 528.689C547.998 525.356 549.552 522.472 551.577 520.08C553.683 517.666 556.239 515.846 559.266 514.599C562.293 513.27 565.79 512.615 569.757 512.615C573.949 512.615 577.528 513.433 580.473 515.069C583.5 516.623 585.995 518.607 587.917 521V516.685C587.917 515.908 588.183 515.253 588.735 514.701C589.287 514.088 589.982 513.76 590.841 513.76H604.236C605.095 513.76 605.791 514.067 606.322 514.701C606.936 515.253 607.263 515.908 607.263 516.685V572.699C607.263 578.609 606.057 583.578 603.664 587.607C601.251 591.636 597.795 594.703 593.295 596.81C588.796 598.916 583.316 599.959 576.874 599.959L576.833 600ZM576.015 557.954C578.51 557.954 580.514 557.402 582.068 556.318C583.622 555.234 584.747 553.843 585.442 552.125C586.22 550.408 586.649 548.587 586.731 546.645C586.813 545.786 586.854 544.579 586.854 543.025C586.854 541.471 586.813 540.305 586.731 539.528C586.649 537.503 586.22 535.642 585.442 533.945C584.747 532.227 583.622 530.877 582.068 529.875C580.514 528.791 578.489 528.239 576.015 528.239C573.54 528.239 571.393 528.791 569.839 529.875C568.366 530.959 567.282 532.432 566.567 534.293C565.953 536.154 565.565 538.219 565.401 540.469C565.319 542.187 565.319 543.925 565.401 545.704C565.565 547.954 565.953 550.019 566.567 551.88C567.262 553.741 568.346 555.213 569.839 556.297C571.393 557.381 573.438 557.933 576.015 557.933V557.954ZM623.869 574.376C623.01 574.376 622.315 574.11 621.762 573.558C621.231 573.005 620.944 572.31 620.944 571.451V516.705C620.944 515.846 621.21 515.151 621.762 514.599C622.315 514.047 623.01 513.781 623.869 513.781H637.264C638.123 513.781 638.818 514.047 639.35 514.599C639.902 515.151 640.168 515.846 640.168 516.705V521.123C642.192 518.709 644.831 516.705 648.082 515.069C651.334 513.433 655.178 512.615 659.616 512.615C664.054 512.615 668.083 513.617 671.498 515.642C674.995 517.666 677.715 520.652 679.658 524.62C681.682 528.505 682.684 533.27 682.684 538.955V571.451C682.684 572.31 682.378 573.005 681.744 573.558C681.191 574.11 680.537 574.376 679.76 574.376H665.076C664.299 574.376 663.604 574.11 662.97 573.558C662.438 573.005 662.152 572.31 662.152 571.451V539.651C662.152 536.01 661.252 533.209 659.473 531.266C657.776 529.241 655.199 528.239 651.784 528.239C648.593 528.239 646.037 529.241 644.094 531.266C642.233 533.209 641.293 536.01 641.293 539.651V571.451C641.293 572.31 640.986 573.005 640.352 573.558C639.8 574.11 639.145 574.376 638.368 574.376H623.808H623.869ZM724.321 575.541C717.798 575.541 712.297 574.498 707.777 572.392C703.36 570.286 699.944 567.3 697.531 563.414C695.2 559.447 693.891 554.764 693.564 549.324C693.482 547.769 693.441 546.031 693.441 544.088C693.441 542.146 693.482 540.325 693.564 538.853C693.871 533.331 695.282 528.648 697.756 524.763C700.251 520.877 703.687 517.891 708.125 515.785C712.624 513.679 718.023 512.636 724.321 512.636C730.62 512.636 736.08 513.679 740.518 515.785C745.017 517.891 748.514 520.877 751.009 524.763C753.484 528.648 754.895 533.352 755.202 538.853C755.283 540.325 755.324 542.084 755.324 544.088C755.324 546.093 755.283 547.769 755.202 549.324C754.895 554.764 753.525 559.447 751.132 563.414C748.801 567.3 745.385 570.286 740.886 572.392C736.469 574.498 730.947 575.541 724.342 575.541H724.321ZM724.321 561.328C727.818 561.328 730.334 560.285 731.888 558.179C733.524 556.072 734.444 552.943 734.69 548.751C734.772 547.585 734.813 546.031 734.813 544.088C734.813 542.146 734.772 540.591 734.69 539.426C734.465 535.315 733.524 532.207 731.888 530.1C730.334 527.932 727.818 526.849 724.321 526.849C720.824 526.849 718.391 527.932 716.755 530.1C715.119 532.207 714.239 535.295 714.076 539.426C713.994 540.591 713.953 542.146 713.953 544.088C713.953 546.031 713.994 547.585 714.076 548.751C714.239 552.943 715.119 556.093 716.755 558.179C718.391 560.285 720.906 561.328 724.321 561.328ZM791.685 575.541C786.634 575.541 782.339 574.989 778.76 573.905C775.263 572.74 772.4 571.349 770.151 569.713C767.983 568.077 766.347 566.42 765.263 564.703C764.179 562.923 763.586 561.41 763.525 560.163C763.443 559.304 763.729 558.608 764.343 558.056C764.956 557.443 765.631 557.115 766.327 557.115H779.599C779.824 557.115 780.028 557.156 780.192 557.238C780.356 557.32 780.581 557.463 780.887 557.708C781.889 558.261 782.912 558.956 783.914 559.815C784.916 560.592 786.082 561.287 787.411 561.921C788.74 562.535 790.315 562.862 792.176 562.862C794.344 562.862 796.184 562.433 797.657 561.574C799.129 560.715 799.865 559.447 799.865 557.729C799.865 556.481 799.518 555.479 798.822 554.702C798.127 553.843 796.696 553.025 794.507 552.248C792.401 551.471 789.231 550.694 784.957 549.917C780.928 548.976 777.39 547.79 774.364 546.297C771.337 544.743 769.006 542.759 767.37 540.366C765.734 537.871 764.916 534.886 764.916 531.389C764.916 528.28 765.918 525.294 767.942 522.411C769.967 519.548 772.912 517.216 776.797 515.417C780.683 513.556 785.448 512.615 791.113 512.615C795.612 512.615 799.497 513.167 802.769 514.251C806.103 515.253 808.904 516.582 811.154 518.219C813.485 519.855 815.224 521.511 816.389 523.229C817.555 524.947 818.168 526.481 818.25 527.892C818.332 528.669 818.087 529.364 817.555 529.998C817.003 530.55 816.389 530.816 815.694 530.816H803.587C803.281 530.816 802.974 530.775 802.647 530.693C802.34 530.53 802.054 530.387 801.829 530.223C800.888 529.753 799.968 529.139 799.027 528.362C798.086 527.585 797.002 526.89 795.775 526.256C794.528 525.642 792.974 525.315 791.113 525.315C789.027 525.315 787.391 525.785 786.225 526.705C785.059 527.646 784.487 528.832 784.487 530.325C784.487 531.327 784.793 532.268 785.427 533.127C786.123 533.986 787.493 534.763 789.497 535.458C791.603 536.154 794.814 536.931 799.17 537.79C804.528 538.649 808.802 540.039 811.972 541.982C815.162 543.843 817.412 546.052 818.721 548.628C820.05 551.123 820.704 553.762 820.704 556.543C820.704 560.265 819.58 563.578 817.33 566.441C815.162 569.304 811.89 571.574 807.555 573.189C803.199 574.744 797.923 575.521 791.706 575.521L791.685 575.541ZM861.789 574.376C856.82 574.376 852.505 573.598 848.865 572.044C845.286 570.408 842.525 567.934 840.603 564.6C838.66 561.185 837.699 556.788 837.699 551.43V529.078H828.619C827.76 529.078 827.024 528.812 826.41 528.26C825.858 527.708 825.592 527.012 825.592 526.153V516.726C825.592 515.867 825.858 515.171 826.41 514.619C827.024 514.067 827.76 513.801 828.619 513.801H837.699V494.578C837.699 493.719 837.965 493.023 838.517 492.471C839.13 491.919 839.846 491.653 840.603 491.653H854.12C854.979 491.653 855.675 491.919 856.206 492.471C856.738 493.023 857.024 493.719 857.024 494.578V513.801H871.585C872.444 513.801 873.139 514.067 873.691 514.619C874.223 515.171 874.509 515.867 874.509 516.726V526.153C874.509 527.012 874.244 527.708 873.691 528.26C873.139 528.812 872.444 529.078 871.585 529.078H857.024V549.815C857.024 552.453 857.536 554.559 858.538 556.113C859.54 557.668 861.258 558.445 863.671 558.445H872.628C873.487 558.445 874.182 558.711 874.734 559.263C875.287 559.815 875.552 560.51 875.552 561.369V571.492C875.552 572.351 875.287 573.046 874.734 573.599C874.182 574.151 873.487 574.417 872.628 574.417H861.789V574.376ZM946.209 575.541C940.462 575.541 935.37 574.498 930.953 572.392C926.535 570.286 922.997 567.259 920.359 563.312C917.803 559.283 916.392 554.457 916.167 548.874C916.085 547.626 916.044 546.072 916.044 544.211C916.044 542.35 916.085 540.673 916.167 539.426C916.392 533.761 917.803 528.935 920.359 524.988C922.916 520.959 926.413 517.891 930.83 515.785C935.329 513.679 940.462 512.636 946.209 512.636C951.567 512.636 956.148 513.413 959.951 514.967C963.755 516.439 966.864 518.3 969.277 520.55C971.69 522.799 973.469 525.131 974.635 527.544C975.882 529.875 976.537 531.941 976.619 533.72C976.7 534.497 976.414 535.192 975.801 535.826C975.187 536.379 974.471 536.644 973.694 536.644H958.908C958.05 536.644 957.395 536.46 956.925 536.072C956.454 535.683 956.025 535.111 955.636 534.334C954.716 531.92 953.51 530.223 952.037 529.2C950.646 528.198 948.806 527.687 946.556 527.687C943.448 527.687 941.035 528.689 939.337 530.714C937.701 532.738 936.822 535.847 936.658 540.039C936.577 543.148 936.577 545.908 936.658 548.301C936.822 552.575 937.701 555.684 939.337 557.627C941.035 559.569 943.448 560.531 946.556 560.531C948.969 560.531 950.871 560.019 952.262 559.017C953.653 558.015 954.777 556.297 955.636 553.884C956.025 553.107 956.454 552.534 956.925 552.146C957.395 551.757 958.05 551.573 958.908 551.573H973.694C974.471 551.573 975.167 551.88 975.801 552.514C976.414 553.066 976.7 553.721 976.619 554.498C976.537 555.827 976.148 557.361 975.453 559.16C974.758 560.878 973.674 562.698 972.201 564.641C970.729 566.584 968.786 568.404 966.373 570.122C964.041 571.758 961.219 573.067 957.865 574.089C954.532 575.091 950.646 575.603 946.229 575.603L946.209 575.541ZM1012 575.541C1006.95 575.541 1002.65 574.989 999.073 573.905C995.576 572.74 992.713 571.349 990.463 569.713C988.296 568.077 986.66 566.42 985.576 564.703C984.492 562.923 983.899 561.41 983.838 560.163C983.756 559.304 984.042 558.608 984.656 558.056C985.269 557.443 985.944 557.115 986.639 557.115H999.912C1000.14 557.115 1000.34 557.156 1000.5 557.238C1000.67 557.32 1000.89 557.463 1001.2 557.708C1002.2 558.261 1003.22 558.956 1004.23 559.815C1005.23 560.592 1006.39 561.287 1007.72 561.921C1009.05 562.535 1010.63 562.862 1012.51 562.862C1014.68 562.862 1016.52 562.433 1017.99 561.574C1019.46 560.715 1020.2 559.447 1020.2 557.729C1020.2 556.481 1019.85 555.479 1019.16 554.702C1018.46 553.843 1017.03 553.025 1014.84 552.248C1012.75 551.471 1009.56 550.694 1005.29 549.917C1001.26 548.976 997.723 547.79 994.697 546.297C991.67 544.743 989.339 542.759 987.703 540.366C986.067 537.871 985.249 534.886 985.249 531.389C985.249 528.28 986.251 525.294 988.275 522.411C990.3 519.548 993.245 517.216 997.13 515.417C1001.02 513.556 1005.78 512.615 1011.45 512.615C1015.94 512.615 1019.83 513.167 1023.1 514.251C1026.44 515.253 1029.24 516.582 1031.49 518.219C1033.82 519.855 1035.56 521.511 1036.72 523.229C1037.89 524.947 1038.5 526.481 1038.58 527.892C1038.67 528.669 1038.42 529.364 1037.89 529.998C1037.34 530.55 1036.72 530.816 1036.03 530.816H1023.92C1023.61 530.816 1023.31 530.775 1022.98 530.693C1022.67 530.53 1022.39 530.387 1022.16 530.223C1021.22 529.753 1020.3 529.139 1019.36 528.362C1018.44 527.585 1017.34 526.89 1016.11 526.256C1014.86 525.642 1013.31 525.315 1011.45 525.315C1009.36 525.315 1007.72 525.785 1006.56 526.705C1005.39 527.646 1004.82 528.832 1004.82 530.325C1004.82 531.327 1005.13 532.268 1005.76 533.127C1006.46 533.986 1007.83 534.763 1009.83 535.458C1011.92 536.154 1015.15 536.931 1019.5 537.79C1024.86 538.649 1029.14 540.039 1032.31 541.982C1035.5 543.843 1037.74 546.052 1039.05 548.628C1040.38 551.123 1041.04 553.762 1041.04 556.543C1041.04 560.265 1039.91 563.578 1037.66 566.441C1035.5 569.304 1032.22 571.574 1027.89 573.189C1023.53 574.744 1018.26 575.521 1012.04 575.521L1012 575.541Z" fill="#1449AE"/>
</svg>
